<svg xmlns="http://www.w3.org/2000/svg" viewBox="0 0 764.86 153.05"><defs><style>.cls-1{fill:#b3b3b3;}.cls-2{opacity:0.1;}.cls-3{fill:gray;}.cls-4{fill:#fbb03b;}</style></defs><title>loadingship</title><g id="Layer_2" data-name="Layer 2"><g id="Layer_1-2" data-name="Layer 1"><rect class="cls-1" width="751.35" height="141.89" rx="12.16"/><path class="cls-2" d="M764.86,23.32V140.89a12.16,12.16,0,0,1-12.16,12.16h-727a12.17,12.17,0,0,1-12.09-10.81H739.19a12.17,12.17,0,0,0,12.16-12.16V12.51c0-.46,0-.91-.07-1.35h1.42A12.15,12.15,0,0,1,764.86,23.32Z"/><rect class="cls-3" x="100.34" y="39.19" width="63.51" height="63.51" rx="12.67"/><path class="cls-2" d="M168.87,56.1V94.27a12.67,12.67,0,0,1-12.67,12.67H118a12.65,12.65,0,0,1-11.67-7.75,12.57,12.57,0,0,0,4.92,1h38.17a12.66,12.66,0,0,0,12.67-12.66V49.34a12.57,12.57,0,0,0-1-4.92A12.67,12.67,0,0,1,168.87,56.1Z"/><rect class="cls-4" x="327.03" y="66.22" width="97.3" height="9.46"/><rect class="cls-4" x="463.51" y="66.22" width="97.3" height="9.46"/><rect class="cls-4" x="598.65" y="66.22" width="97.3" height="9.46"/><rect class="cls-4" x="197.3" y="66.22" width="97.3" height="9.46"/></g></g></svg>